<?xml version="1.0" encoding="UTF-8"?>
<!-- Created with Inkscape (http://www.inkscape.org/) -->
<svg width="900" height="900" version="1.1" viewBox="0 0 900 900" xmlns="http://www.w3.org/2000/svg" xmlns:cc="http://creativecommons.org/ns#" xmlns:dc="http://purl.org/dc/elements/1.1/" xmlns:rdf="http://www.w3.org/1999/02/22-rdf-syntax-ns#">
 <defs>
  <marker id="marker33827" overflow="visible" orient="auto">
   <g transform="scale(-1.2)">
    <path d="m-3.8049-3.9585 4.3484 3.9585" fill-rule="evenodd" stroke="#000" stroke-linecap="round" stroke-width=".8"/>
    <path d="m-1.2867-3.9585 4.3484 3.9585" fill-rule="evenodd" stroke="#000" stroke-linecap="round" stroke-width=".8"/>
    <path d="m1.3054-3.9585 4.3484 3.9585" fill-rule="evenodd" stroke="#000" stroke-linecap="round" stroke-width=".8"/>
    <path d="m-3.8049 4.1776 4.3484-3.9578" fill-rule="evenodd" stroke="#000" stroke-linecap="round" stroke-width=".8"/>
    <path d="m-1.2867 4.1776 4.3484-3.9578" fill-rule="evenodd" stroke="#000" stroke-linecap="round" stroke-width=".8"/>
    <path d="m1.3054 4.1776 4.3484-3.9578" fill-rule="evenodd" stroke="#000" stroke-linecap="round" stroke-width=".8"/>
   </g>
  </marker>
  <marker id="marker33391" overflow="visible" orient="auto">
   <g transform="scale(-1.2)">
    <path d="m-3.8049-3.9585 4.3484 3.9585" fill-rule="evenodd" stroke="#000" stroke-linecap="round" stroke-width=".8"/>
    <path d="m-1.2867-3.9585 4.3484 3.9585" fill-rule="evenodd" stroke="#000" stroke-linecap="round" stroke-width=".8"/>
    <path d="m1.3054-3.9585 4.3484 3.9585" fill-rule="evenodd" stroke="#000" stroke-linecap="round" stroke-width=".8"/>
    <path d="m-3.8049 4.1776 4.3484-3.9578" fill-rule="evenodd" stroke="#000" stroke-linecap="round" stroke-width=".8"/>
    <path d="m-1.2867 4.1776 4.3484-3.9578" fill-rule="evenodd" stroke="#000" stroke-linecap="round" stroke-width=".8"/>
    <path d="m1.3054 4.1776 4.3484-3.9578" fill-rule="evenodd" stroke="#000" stroke-linecap="round" stroke-width=".8"/>
   </g>
  </marker>
  <marker id="marker31537" overflow="visible" orient="auto">
   <g transform="scale(-1.2)">
    <path d="m-3.8049-3.9585 4.3484 3.9585" fill-rule="evenodd" stroke="#000" stroke-linecap="round" stroke-width=".8"/>
    <path d="m-1.2867-3.9585 4.3484 3.9585" fill-rule="evenodd" stroke="#000" stroke-linecap="round" stroke-width=".8"/>
    <path d="m1.3054-3.9585 4.3484 3.9585" fill-rule="evenodd" stroke="#000" stroke-linecap="round" stroke-width=".8"/>
    <path d="m-3.8049 4.1776 4.3484-3.9578" fill-rule="evenodd" stroke="#000" stroke-linecap="round" stroke-width=".8"/>
    <path d="m-1.2867 4.1776 4.3484-3.9578" fill-rule="evenodd" stroke="#000" stroke-linecap="round" stroke-width=".8"/>
    <path d="m1.3054 4.1776 4.3484-3.9578" fill-rule="evenodd" stroke="#000" stroke-linecap="round" stroke-width=".8"/>
   </g>
  </marker>
  <marker id="marker31149" overflow="visible" orient="auto">
   <g transform="scale(-1.2)">
    <path d="m-3.8049-3.9585 4.3484 3.9585" fill-rule="evenodd" stroke="#000" stroke-linecap="round" stroke-width=".8"/>
    <path d="m-1.2867-3.9585 4.3484 3.9585" fill-rule="evenodd" stroke="#000" stroke-linecap="round" stroke-width=".8"/>
    <path d="m1.3054-3.9585 4.3484 3.9585" fill-rule="evenodd" stroke="#000" stroke-linecap="round" stroke-width=".8"/>
    <path d="m-3.8049 4.1776 4.3484-3.9578" fill-rule="evenodd" stroke="#000" stroke-linecap="round" stroke-width=".8"/>
    <path d="m-1.2867 4.1776 4.3484-3.9578" fill-rule="evenodd" stroke="#000" stroke-linecap="round" stroke-width=".8"/>
    <path d="m1.3054 4.1776 4.3484-3.9578" fill-rule="evenodd" stroke="#000" stroke-linecap="round" stroke-width=".8"/>
   </g>
  </marker>
  <marker id="marker29967" overflow="visible" orient="auto">
   <g transform="scale(-1.2)">
    <path d="m-3.8049-3.9585 4.3484 3.9585" fill-rule="evenodd" stroke="#000" stroke-linecap="round" stroke-width=".8"/>
    <path d="m-1.2867-3.9585 4.3484 3.9585" fill-rule="evenodd" stroke="#000" stroke-linecap="round" stroke-width=".8"/>
    <path d="m1.3054-3.9585 4.3484 3.9585" fill-rule="evenodd" stroke="#000" stroke-linecap="round" stroke-width=".8"/>
    <path d="m-3.8049 4.1776 4.3484-3.9578" fill-rule="evenodd" stroke="#000" stroke-linecap="round" stroke-width=".8"/>
    <path d="m-1.2867 4.1776 4.3484-3.9578" fill-rule="evenodd" stroke="#000" stroke-linecap="round" stroke-width=".8"/>
    <path d="m1.3054 4.1776 4.3484-3.9578" fill-rule="evenodd" stroke="#000" stroke-linecap="round" stroke-width=".8"/>
   </g>
  </marker>
  <marker id="marker29627" overflow="visible" orient="auto">
   <g transform="scale(-1.2)">
    <path d="m-3.8049-3.9585 4.3484 3.9585" fill-rule="evenodd" stroke="#000" stroke-linecap="round" stroke-width=".8"/>
    <path d="m-1.2867-3.9585 4.3484 3.9585" fill-rule="evenodd" stroke="#000" stroke-linecap="round" stroke-width=".8"/>
    <path d="m1.3054-3.9585 4.3484 3.9585" fill-rule="evenodd" stroke="#000" stroke-linecap="round" stroke-width=".8"/>
    <path d="m-3.8049 4.1776 4.3484-3.9578" fill-rule="evenodd" stroke="#000" stroke-linecap="round" stroke-width=".8"/>
    <path d="m-1.2867 4.1776 4.3484-3.9578" fill-rule="evenodd" stroke="#000" stroke-linecap="round" stroke-width=".8"/>
    <path d="m1.3054 4.1776 4.3484-3.9578" fill-rule="evenodd" stroke="#000" stroke-linecap="round" stroke-width=".8"/>
   </g>
  </marker>
  <marker id="marker27581" overflow="visible" orient="auto">
   <g transform="scale(-1.2)">
    <path d="m-3.8049-3.9585 4.3484 3.9585" fill-rule="evenodd" stroke="#000" stroke-linecap="round" stroke-width=".8"/>
    <path d="m-1.2867-3.9585 4.3484 3.9585" fill-rule="evenodd" stroke="#000" stroke-linecap="round" stroke-width=".8"/>
    <path d="m1.3054-3.9585 4.3484 3.9585" fill-rule="evenodd" stroke="#000" stroke-linecap="round" stroke-width=".8"/>
    <path d="m-3.8049 4.1776 4.3484-3.9578" fill-rule="evenodd" stroke="#000" stroke-linecap="round" stroke-width=".8"/>
    <path d="m-1.2867 4.1776 4.3484-3.9578" fill-rule="evenodd" stroke="#000" stroke-linecap="round" stroke-width=".8"/>
    <path d="m1.3054 4.1776 4.3484-3.9578" fill-rule="evenodd" stroke="#000" stroke-linecap="round" stroke-width=".8"/>
   </g>
  </marker>
  <marker id="marker27289" overflow="visible" orient="auto">
   <g transform="scale(-1.2)">
    <path d="m-3.8049-3.9585 4.3484 3.9585" fill-rule="evenodd" stroke="#000" stroke-linecap="round" stroke-width=".8"/>
    <path d="m-1.2867-3.9585 4.3484 3.9585" fill-rule="evenodd" stroke="#000" stroke-linecap="round" stroke-width=".8"/>
    <path d="m1.3054-3.9585 4.3484 3.9585" fill-rule="evenodd" stroke="#000" stroke-linecap="round" stroke-width=".8"/>
    <path d="m-3.8049 4.1776 4.3484-3.9578" fill-rule="evenodd" stroke="#000" stroke-linecap="round" stroke-width=".8"/>
    <path d="m-1.2867 4.1776 4.3484-3.9578" fill-rule="evenodd" stroke="#000" stroke-linecap="round" stroke-width=".8"/>
    <path d="m1.3054 4.1776 4.3484-3.9578" fill-rule="evenodd" stroke="#000" stroke-linecap="round" stroke-width=".8"/>
   </g>
  </marker>
  <marker id="marker26107" overflow="visible" orient="auto">
   <g transform="scale(-1.2)">
    <path d="m-3.8049-3.9585 4.3484 3.9585" fill-rule="evenodd" stroke="#000" stroke-linecap="round" stroke-width=".8"/>
    <path d="m-1.2867-3.9585 4.3484 3.9585" fill-rule="evenodd" stroke="#000" stroke-linecap="round" stroke-width=".8"/>
    <path d="m1.3054-3.9585 4.3484 3.9585" fill-rule="evenodd" stroke="#000" stroke-linecap="round" stroke-width=".8"/>
    <path d="m-3.8049 4.1776 4.3484-3.9578" fill-rule="evenodd" stroke="#000" stroke-linecap="round" stroke-width=".8"/>
    <path d="m-1.2867 4.1776 4.3484-3.9578" fill-rule="evenodd" stroke="#000" stroke-linecap="round" stroke-width=".8"/>
    <path d="m1.3054 4.1776 4.3484-3.9578" fill-rule="evenodd" stroke="#000" stroke-linecap="round" stroke-width=".8"/>
   </g>
  </marker>
  <marker id="marker25863" overflow="visible" orient="auto">
   <g transform="scale(-1.2)">
    <path d="m-3.8049-3.9585 4.3484 3.9585" fill-rule="evenodd" stroke="#000" stroke-linecap="round" stroke-width=".8"/>
    <path d="m-1.2867-3.9585 4.3484 3.9585" fill-rule="evenodd" stroke="#000" stroke-linecap="round" stroke-width=".8"/>
    <path d="m1.3054-3.9585 4.3484 3.9585" fill-rule="evenodd" stroke="#000" stroke-linecap="round" stroke-width=".8"/>
    <path d="m-3.8049 4.1776 4.3484-3.9578" fill-rule="evenodd" stroke="#000" stroke-linecap="round" stroke-width=".8"/>
    <path d="m-1.2867 4.1776 4.3484-3.9578" fill-rule="evenodd" stroke="#000" stroke-linecap="round" stroke-width=".8"/>
    <path d="m1.3054 4.1776 4.3484-3.9578" fill-rule="evenodd" stroke="#000" stroke-linecap="round" stroke-width=".8"/>
   </g>
  </marker>
  <marker id="marker24105" overflow="visible" orient="auto">
   <g transform="scale(-1.2)">
    <path d="m-3.8049-3.9585 4.3484 3.9585" fill-rule="evenodd" stroke="#000" stroke-linecap="round" stroke-width=".8"/>
    <path d="m-1.2867-3.9585 4.3484 3.9585" fill-rule="evenodd" stroke="#000" stroke-linecap="round" stroke-width=".8"/>
    <path d="m1.3054-3.9585 4.3484 3.9585" fill-rule="evenodd" stroke="#000" stroke-linecap="round" stroke-width=".8"/>
    <path d="m-3.8049 4.1776 4.3484-3.9578" fill-rule="evenodd" stroke="#000" stroke-linecap="round" stroke-width=".8"/>
    <path d="m-1.2867 4.1776 4.3484-3.9578" fill-rule="evenodd" stroke="#000" stroke-linecap="round" stroke-width=".8"/>
    <path d="m1.3054 4.1776 4.3484-3.9578" fill-rule="evenodd" stroke="#000" stroke-linecap="round" stroke-width=".8"/>
   </g>
  </marker>
  <marker id="marker23909" overflow="visible" orient="auto">
   <g transform="scale(-1.2)">
    <path d="m-3.8049-3.9585 4.3484 3.9585" fill-rule="evenodd" stroke="#000" stroke-linecap="round" stroke-width=".8"/>
    <path d="m-1.2867-3.9585 4.3484 3.9585" fill-rule="evenodd" stroke="#000" stroke-linecap="round" stroke-width=".8"/>
    <path d="m1.3054-3.9585 4.3484 3.9585" fill-rule="evenodd" stroke="#000" stroke-linecap="round" stroke-width=".8"/>
    <path d="m-3.8049 4.1776 4.3484-3.9578" fill-rule="evenodd" stroke="#000" stroke-linecap="round" stroke-width=".8"/>
    <path d="m-1.2867 4.1776 4.3484-3.9578" fill-rule="evenodd" stroke="#000" stroke-linecap="round" stroke-width=".8"/>
    <path d="m1.3054 4.1776 4.3484-3.9578" fill-rule="evenodd" stroke="#000" stroke-linecap="round" stroke-width=".8"/>
   </g>
  </marker>
  <marker id="marker21575" overflow="visible" orient="auto">
   <g transform="scale(-1.2)">
    <path d="m-3.8049-3.9585 4.3484 3.9585" fill-rule="evenodd" stroke="#000" stroke-linecap="round" stroke-width=".8"/>
    <path d="m-1.2867-3.9585 4.3484 3.9585" fill-rule="evenodd" stroke="#000" stroke-linecap="round" stroke-width=".8"/>
    <path d="m1.3054-3.9585 4.3484 3.9585" fill-rule="evenodd" stroke="#000" stroke-linecap="round" stroke-width=".8"/>
    <path d="m-3.8049 4.1776 4.3484-3.9578" fill-rule="evenodd" stroke="#000" stroke-linecap="round" stroke-width=".8"/>
    <path d="m-1.2867 4.1776 4.3484-3.9578" fill-rule="evenodd" stroke="#000" stroke-linecap="round" stroke-width=".8"/>
    <path d="m1.3054 4.1776 4.3484-3.9578" fill-rule="evenodd" stroke="#000" stroke-linecap="round" stroke-width=".8"/>
   </g>
  </marker>
  <marker id="marker21427" overflow="visible" orient="auto">
   <g transform="scale(-1.2)">
    <path d="m-3.8049-3.9585 4.3484 3.9585" fill-rule="evenodd" stroke="#000" stroke-linecap="round" stroke-width=".8"/>
    <path d="m-1.2867-3.9585 4.3484 3.9585" fill-rule="evenodd" stroke="#000" stroke-linecap="round" stroke-width=".8"/>
    <path d="m1.3054-3.9585 4.3484 3.9585" fill-rule="evenodd" stroke="#000" stroke-linecap="round" stroke-width=".8"/>
    <path d="m-3.8049 4.1776 4.3484-3.9578" fill-rule="evenodd" stroke="#000" stroke-linecap="round" stroke-width=".8"/>
    <path d="m-1.2867 4.1776 4.3484-3.9578" fill-rule="evenodd" stroke="#000" stroke-linecap="round" stroke-width=".8"/>
    <path d="m1.3054 4.1776 4.3484-3.9578" fill-rule="evenodd" stroke="#000" stroke-linecap="round" stroke-width=".8"/>
   </g>
  </marker>
  <marker id="Tail" overflow="visible" orient="auto">
   <g transform="scale(-1.2)">
    <path d="m-3.8049-3.9585 4.3484 3.9585" fill-rule="evenodd" stroke="#000" stroke-linecap="round" stroke-width=".8"/>
    <path d="m-1.2867-3.9585 4.3484 3.9585" fill-rule="evenodd" stroke="#000" stroke-linecap="round" stroke-width=".8"/>
    <path d="m1.3054-3.9585 4.3484 3.9585" fill-rule="evenodd" stroke="#000" stroke-linecap="round" stroke-width=".8"/>
    <path d="m-3.8049 4.1776 4.3484-3.9578" fill-rule="evenodd" stroke="#000" stroke-linecap="round" stroke-width=".8"/>
    <path d="m-1.2867 4.1776 4.3484-3.9578" fill-rule="evenodd" stroke="#000" stroke-linecap="round" stroke-width=".8"/>
    <path d="m1.3054 4.1776 4.3484-3.9578" fill-rule="evenodd" stroke="#000" stroke-linecap="round" stroke-width=".8"/>
   </g>
  </marker>
  <marker id="marker19476" overflow="visible" orient="auto">
   <path transform="scale(.8) rotate(180) translate(12.5)" d="m0 0 5-5-17.5 5 17.5 5-5-5z" fill-rule="evenodd" stroke="#000" stroke-width="1pt"/>
  </marker>
  <marker id="marker19088" overflow="visible" orient="auto">
   <path transform="scale(.8) rotate(180) translate(12.5)" d="m0 0 5-5-17.5 5 17.5 5-5-5z" fill-rule="evenodd" stroke="#000" stroke-width="1pt"/>
  </marker>
  <marker id="marker18814" overflow="visible" orient="auto">
   <path transform="scale(.8) rotate(180) translate(12.5)" d="m0 0 5-5-17.5 5 17.5 5-5-5z" fill-rule="evenodd" stroke="#000" stroke-width="1pt"/>
  </marker>
  <marker id="marker18386" overflow="visible" orient="auto">
   <path transform="scale(.8) rotate(180) translate(12.5)" d="m0 0 5-5-17.5 5 17.5 5-5-5z" fill-rule="evenodd" stroke="#000" stroke-width="1pt"/>
  </marker>
  <marker id="marker18310" overflow="visible" orient="auto">
   <path transform="scale(.8) rotate(180) translate(12.5)" d="m0 0 5-5-17.5 5 17.5 5-5-5z" fill-rule="evenodd" stroke="#000" stroke-width="1pt"/>
  </marker>
  <marker id="marker17780" overflow="visible" orient="auto">
   <path transform="scale(.8) rotate(180) translate(12.5)" d="m0 0 5-5-17.5 5 17.5 5-5-5z" fill-rule="evenodd" stroke="#000" stroke-width="1pt"/>
  </marker>
  <marker id="marker17752" overflow="visible" orient="auto">
   <path transform="scale(.8) rotate(180) translate(12.5)" d="m0 0 5-5-17.5 5 17.5 5-5-5z" fill-rule="evenodd" stroke="#000" stroke-width="1pt"/>
  </marker>
  <marker id="Arrow1Lend" overflow="visible" orient="auto">
   <path transform="scale(.8) rotate(180) translate(12.5)" d="m0 0 5-5-17.5 5 17.5 5-5-5z" fill-rule="evenodd" stroke="#000" stroke-width="1pt"/>
  </marker>
 </defs>
 <metadata>
  <rdf:RDF>
   <cc:Work rdf:about="">
    <dc:format>image/svg+xml</dc:format>
    <dc:type rdf:resource="http://purl.org/dc/dcmitype/StillImage"/>
    <dc:title/>
   </cc:Work>
  </rdf:RDF>
 </metadata>
 <g transform="translate(0 -222.52)">
  <rect x="10" y="232.52" width="880" height="880" rx="25" ry="25" fill="#8cf" stroke="#000" stroke-width="20"/>
 </g>
 <g>
  <g>
   <g stroke="#000" stroke-width="2">
    <rect x="500" y="150" width="50" height="50"/>
    <circle cx="500" cy="175" r="50" fill="#fff"/>
    <circle cx="500" cy="175" r="45"/>
   </g>
   <path d="m450 175 25 14.434v28.868l24.998-14.435 25 14.434v-28.868l25-14.434-25-14.434v-28.868l-24.998 14.435-25.002-14.433v28.866z" fill="#fc0" stroke="#fff" stroke-linejoin="bevel" stroke-width="8"/>
   <path d="m450 175 25 14.434v28.868l24.998-14.435 25 14.434v-28.868l25-14.434-25-14.434v-28.868l-24.998 14.435-25.002-14.433v28.866z" fill="#48f" stroke="#000" stroke-linejoin="bevel" stroke-width="2"/>
  </g>
  <circle cx="500" cy="175" r="50" fill="none" stroke="#000" stroke-width="2"/>
  <g>
   <g stroke="#000" stroke-width="2">
    <rect x="150" y="350" width="50" height="50"/>
    <circle cx="175" cy="400" r="50" fill="#fff"/>
    <circle cx="175" cy="400" r="45"/>
   </g>
   <path d="m175 350-14.434 25-28.868 2e-3 14.435 24.998-14.434 25 28.868 1e-5 14.434 25 14.434-25 28.868-2e-3 -14.435-24.998 14.433-25.002-28.867 2e-3z" fill="#fc0" stroke="#fff" stroke-linejoin="bevel" stroke-width="8"/>
   <path d="m175 350-14.434 25-28.868 2e-3 14.435 24.998-14.434 25 28.868 1e-5 14.434 25 14.434-25 28.868-2e-3 -14.435-24.998 14.433-25.002-28.867 2e-3z" fill="#f00" stroke="#000" stroke-linejoin="bevel" stroke-width="2"/>
  </g>
  <circle cx="175" cy="400" r="50" fill="none" stroke="#000" stroke-width="2"/>
  <g>
   <g stroke="#000" stroke-width="2">
    <rect x="350" y="700" width="50" height="50"/>
    <circle cx="400" cy="725" r="50" fill="#fff"/>
    <circle cx="400" cy="725" r="45"/>
   </g>
   <path d="m350 725 25 14.434v28.868l24.998-14.435 25 14.434v-28.868l25-14.434-25-14.434v-28.868l-24.998 14.435-25.002-14.433v28.866z" fill="#fc0" stroke="#fff" stroke-linejoin="bevel" stroke-width="8"/>
   <path d="m350 725 25 14.434v28.868l24.998-14.435 25 14.434v-28.868l25-14.434-25-14.434v-28.868l-24.998 14.435-25.002-14.433v28.866z" fill="#0c4" stroke="#000" stroke-linejoin="bevel" stroke-width="2"/>
  </g>
  <circle cx="400" cy="725" r="50" fill="none" stroke="#000" stroke-width="2"/>
  <g stroke="#000" stroke-width="2">
   <rect x="750" y="250" width="50" height="50"/>
   <rect x="700" y="500" width="50" height="50"/>
   <rect x="600" y="750" width="50" height="50"/>
   <rect x="100" y="600" width="50" height="50"/>
   <rect x="250" y="100" width="50" height="50"/>
  </g>
  <g fill="#fff" stroke="#000" stroke-width="2">
   <rect x="50" y="50" width="50" height="50"/>
   <rect x="100" y="50" width="50" height="50"/>
   <rect x="150" y="50" width="50" height="50"/>
   <rect x="200" y="50" width="50" height="50"/>
   <rect x="250" y="50" width="50" height="50"/>
   <rect x="300" y="50" width="50" height="50"/>
   <rect x="350" y="50" width="50" height="50"/>
   <rect x="400" y="50" width="50" height="50"/>
   <rect x="450" y="50" width="50" height="50"/>
   <rect x="500" y="50" width="50" height="50"/>
   <rect x="550" y="50" width="50" height="50"/>
   <rect x="600" y="50" width="50" height="50"/>
   <rect x="650" y="50" width="50" height="50"/>
   <rect x="700" y="50" width="50" height="50"/>
   <rect x="750" y="50" width="50" height="50"/>
   <rect x="800" y="50" width="50" height="50"/>
   <rect x="800" y="100" width="50" height="50"/>
   <rect x="800" y="150" width="50" height="50"/>
   <rect x="800" y="200" width="50" height="50"/>
   <rect x="800" y="250" width="50" height="50"/>
   <rect x="800" y="300" width="50" height="50"/>
   <rect x="800" y="350" width="50" height="50"/>
   <rect x="800" y="400" width="50" height="50"/>
   <rect x="800" y="450" width="50" height="50"/>
   <rect x="800" y="500" width="50" height="50"/>
   <rect x="800" y="550" width="50" height="50"/>
   <rect x="800" y="600" width="50" height="50"/>
   <rect x="800" y="650" width="50" height="50"/>
   <rect x="800" y="700" width="50" height="50"/>
   <rect x="800" y="750" width="50" height="50"/>
   <rect x="800" y="800" width="50" height="50"/>
   <rect x="50" y="100" width="50" height="50"/>
   <rect x="50" y="150" width="50" height="50"/>
   <rect x="50" y="200" width="50" height="50"/>
   <rect x="50" y="250" width="50" height="50"/>
   <rect x="50" y="300" width="50" height="50"/>
   <rect x="50" y="350" width="50" height="50"/>
   <rect x="50" y="400" width="50" height="50"/>
   <rect x="50" y="450" width="50" height="50"/>
   <rect x="50" y="500" width="50" height="50"/>
   <rect x="50" y="550" width="50" height="50"/>
   <rect x="50" y="600" width="50" height="50"/>
   <rect x="50" y="650" width="50" height="50"/>
   <rect x="50" y="700" width="50" height="50"/>
   <rect x="50" y="750" width="50" height="50"/>
   <rect x="50" y="800" width="50" height="50"/>
   <rect x="100" y="800" width="50" height="50"/>
   <rect x="150" y="800" width="50" height="50"/>
   <rect x="200" y="800" width="50" height="50"/>
   <rect x="250" y="800" width="50" height="50"/>
   <rect x="300" y="800" width="50" height="50"/>
   <rect x="350" y="800" width="50" height="50"/>
   <rect x="400" y="800" width="50" height="50"/>
   <rect x="450" y="800" width="50" height="50"/>
   <rect x="500" y="800" width="50" height="50"/>
   <rect x="550" y="800" width="50" height="50"/>
   <rect x="600" y="800" width="50" height="50"/>
   <rect x="650" y="800" width="50" height="50"/>
   <rect x="700" y="800" width="50" height="50"/>
   <rect x="750" y="800" width="50" height="50"/>
   <rect x="100" y="700" width="50" height="50"/>
   <rect x="150" y="700" width="50" height="50"/>
   <rect x="200" y="700" width="50" height="50"/>
   <rect x="250" y="700" width="50" height="50"/>
   <rect x="300" y="700" width="50" height="50"/>
   <rect x="150" y="100" width="50" height="50"/>
   <rect x="150" y="150" width="50" height="50"/>
   <rect x="150" y="200" width="50" height="50"/>
   <rect x="150" y="250" width="50" height="50"/>
   <rect x="150" y="300" width="50" height="50"/>
   <rect x="550" y="150" width="50" height="50"/>
   <rect x="600" y="150" width="50" height="50"/>
   <rect x="650" y="150" width="50" height="50"/>
   <rect x="700" y="150" width="50" height="50"/>
   <rect x="750" y="150" width="50" height="50"/>
   <rect x="700" y="550" width="50" height="50"/>
   <rect x="700" y="600" width="50" height="50"/>
   <rect x="700" y="650" width="50" height="50"/>
   <rect x="700" y="700" width="50" height="50"/>
   <rect x="700" y="750" width="50" height="50"/>
  </g>
  <g stroke="#000" stroke-width="2">
   <circle cx="625" cy="750" r="50" fill="#fc0"/>
   <circle cx="725" cy="500" r="50" fill="#fff"/>
   <circle cx="150" cy="625" r="50" fill="#0c4"/>
   <circle cx="275" cy="150" r="50" fill="#f00"/>
  </g>
  <g fill="#48f" stroke="#000">
   <circle cx="750" cy="275" r="50" stroke-width="2"/>
   <g stroke-width=".75">
    <rect x="555" y="155" width="40" height="40"/>
    <rect x="605" y="155" width="40" height="40"/>
    <rect x="655" y="155" width="40" height="40"/>
    <rect x="705" y="155" width="40" height="40"/>
    <rect x="755" y="155" width="40" height="40"/>
   </g>
  </g>
  <g stroke="#000" stroke-width=".75">
   <rect x="705" y="555" width="40" height="40" fill="#fc0"/>
   <rect x="305" y="705" width="40" height="40" fill="#0c4"/>
   <rect x="155" y="305" width="40" height="40" fill="#f00"/>
  </g>
  <g fill="#fc0" stroke="#000" stroke-width=".75">
   <rect x="705" y="605" width="40" height="40"/>
   <rect x="705" y="655" width="40" height="40"/>
   <rect x="705" y="705" width="40" height="40"/>
   <rect x="705" y="755" width="40" height="40"/>
  </g>
  <g fill="#0c4" stroke="#000" stroke-width=".75">
   <rect x="255" y="705" width="40" height="40"/>
   <rect x="205" y="705" width="40" height="40"/>
   <rect x="155" y="705" width="40" height="40"/>
   <rect x="105" y="705" width="40" height="40"/>
  </g>
  <g fill="#f00" stroke="#000" stroke-width=".75">
   <rect x="155" y="255" width="40" height="40"/>
   <rect x="155" y="205" width="40" height="40"/>
   <rect x="155" y="155" width="40" height="40"/>
   <rect x="155" y="105" width="40" height="40"/>
  </g>
  <g>
   <circle cx="725" cy="500" r="45" stroke="#000" stroke-width="2"/>
   <path d="m725 450-14.434 25-28.868 2e-3 14.435 24.998-14.434 25 28.868 1e-5 14.434 25 14.434-25 28.868-2e-3 -14.435-24.998 14.433-25.002-28.867 2e-3z" fill="#fc0" stroke="#fff" stroke-linejoin="bevel" stroke-width="8"/>
   <path d="m725 450-14.434 25-28.868 2e-3 14.435 24.998-14.434 25 28.868 1e-5 14.434 25 14.434-25 28.868-2e-3 -14.435-24.998 14.433-25.002-28.867 2e-3z" fill="#fc0" stroke="#000" stroke-linejoin="bevel" stroke-width="2"/>
  </g>
  <circle cx="725" cy="500" r="50" fill="none" stroke="#000" stroke-width="2"/>
 </g>
 <g stroke="#000">
  <g fill="#0c4" stroke-width="2">
   <path d="m90 790h-30l15-25.981z"/>
   <path d="m90 390h-30l15-25.981z"/>
   <g>
    <circle cx="75" cy="175" r="15"/>
    <circle cx="75" cy="625" r="15"/>
    <rect x="67.5" y="625" width="15" height="160"/>
    <rect x="67.5" y="175" width="15" height="210"/>
   </g>
  </g>
  <g fill="#48f" stroke-width="2">
   <path d="m810 510h30l-15 25.981z"/>
   <path d="m810 110h30l-15 25.981z"/>
   <g>
    <circle cx="825" cy="725" r="15"/>
    <circle cx="825" cy="275" r="15"/>
    <rect x="817.5" y="115" width="15" height="160"/>
    <rect x="817.5" y="515" width="15" height="210"/>
   </g>
  </g>
  <g fill="#fc0" stroke-width="2">
   <path d="m510 90v-30l25.981 15z"/>
   <path d="m110 90v-30l25.981 15z"/>
   <circle cx="725" cy="75" r="15"/>
   <circle cx="275" cy="75" r="15"/>
  </g>
  <rect x="515" y="67.5" width="210" height="15" fill="#f00" stroke-width="2"/>
  <rect x="115" y="67.5" width="160" height="15" fill="#f00" stroke-width="2"/>
  <g fill="#fc0">
   <g stroke-width="2">
    <circle cx="625" cy="825" r="15"/>
    <path d="m790 810v30l-25.981-15z"/>
    <rect x="625" y="817.5" width="160" height="15"/>
   </g>
   <circle cx="625" cy="825" r="15" stroke-width=".75"/>
   <path d="m790 810v30l-25.981-15z" stroke-width=".75"/>
   <g stroke-width="2">
    <circle cx="175" cy="825" r="15"/>
    <path d="m390 810v30l-25.981-15z"/>
    <rect x="175" y="817.5" width="210" height="15"/>
   </g>
   <circle cx="175" cy="825" r="15" stroke-width=".75"/>
   <path d="m390 810v30l-25.981-15z" stroke-width=".75"/>
  </g>
  <g stroke-width=".75">
   <path d="m810 510h30l-15 25.981z" fill="#48f"/>
   <path d="m810 110h30l-15 25.981z" fill="#48f"/>
   <path d="m510 90v-30l25.981 15z" fill="#f00"/>
   <path d="m110 90v-30l25.981 15z" fill="#f00"/>
   <path d="m90 790h-30l15-25.981z" fill="#0c4"/>
   <path d="m90 390h-30l15-25.981z" fill="#0c4"/>
   <g>
    <circle cx="825" cy="725" r="15" fill="#48f"/>
    <circle cx="825" cy="275" r="15" fill="#48f"/>
    <circle cx="725" cy="75" r="15" fill="#f00"/>
    <circle cx="275" cy="75" r="15" fill="#f00"/>
    <circle cx="75" cy="175" r="15" fill="#0c4"/>
    <circle cx="75" cy="625" r="15" fill="#0c4"/>
   </g>
  </g>
 </g>
 <g fill="none" stroke="#000">
  <g>
   <path d="m825 825h-75s-10 0-17.5-7.5-7.5-17.5-7.5-17.5v-25" marker-end="url(#Arrow1Lend)"/>
   <path d="m625 775v25s0.83224 10.023-7.0723 17.928-17.928 7.0723-17.928 7.0723h-25" marker-end="url(#marker17752)"/>
   <path d="m75 825v-75s0-10 7.5-17.5 17.5-7.5 17.5-7.5h25" marker-end="url(#marker17780)"/>
   <path d="m125 625h-25s-10.023 0.83224-17.928-7.0723-7.0723-17.928-7.0723-17.928v-25" marker-end="url(#marker19476)"/>
   <path d="m75 75h75s10 0 17.5 7.5 7.5 17.5 7.5 17.5v25" marker-end="url(#marker18310)"/>
   <path d="m275 125v-25s-0.83224-10.023 7.0723-17.928 17.928-7.0723 17.928-7.0723h25" marker-end="url(#marker18386)"/>
   <path d="m825 75v75s0 10-7.5 17.5-17.5 7.5-17.5 7.5h-25" marker-end="url(#marker18814)"/>
   <path d="m775 275h25s10.023-0.83224 17.928 7.0723 7.0723 17.928 7.0723 17.928v25" marker-end="url(#marker19088)"/>
  </g>
  <g stroke-width="1px">
   <path d="m821.11 825.13h10" marker-end="url(#Tail)" marker-start="url(#Tail)"/>
   <path d="m625.13 778.89v-10" marker-end="url(#marker21575)" marker-start="url(#marker21427)"/>
   <path d="m121.11 625.13h10" marker-end="url(#marker24105)" marker-start="url(#marker23909)"/>
   <path d="m75 820v10" marker-end="url(#marker26107)" marker-start="url(#marker25863)"/>
   <path d="m80 75h-10" marker-end="url(#marker27581)" marker-start="url(#marker27289)"/>
   <path d="m275 120v10" marker-end="url(#marker29967)" marker-start="url(#marker29627)"/>
   <path d="m778.89 274.87h-10" marker-end="url(#marker31537)" marker-start="url(#marker31149)"/>
   <path d="m825.13 78.891v-10" marker-end="url(#marker33827)" marker-start="url(#marker33391)"/>
  </g>
 </g>
 <g fill="#000000" font-family="sans-serif" text-anchor="middle" word-spacing="0px">
  <text x="625" y="756.99988" font-size="40px" letter-spacing="0px" text-align="center" style="line-height:1.25" xml:space="preserve"><tspan x="625" y="756.99988" font-size="18.667px">START</tspan></text>
  <text x="725" y="506.99991" font-size="40px" letter-spacing="0px" text-align="center" style="line-height:1.25" xml:space="preserve"><tspan x="724.5" y="506.99991" font-size="18.667px" letter-spacing="-1px">HOME</tspan></text>
  <g font-size="13.333px" letter-spacing="15px">
   <text transform="scale(-1)" x="-707.5" y="-820.00018" text-align="center" style="line-height:1.25" xml:space="preserve"><tspan x="-700" y="-820.00018">SLIDE</tspan></text>
   <text transform="scale(-1)" x="-282.5" y="-820.00018" text-align="center" style="line-height:1.25" xml:space="preserve"><tspan x="-275" y="-820.00018">SLIDE</tspan></text>
   <text transform="rotate(-90)" x="-707.5" y="79.999794" text-align="center" style="line-height:1.25" xml:space="preserve"><tspan x="-700" y="79.999794">SLIDE</tspan></text>
   <text transform="rotate(-90)" x="-282.5" y="79.999794" text-align="center" style="line-height:1.25" xml:space="preserve"><tspan x="-275" y="79.999794">SLIDE</tspan></text>
   <text x="192.5" y="80.000221" text-align="center" style="line-height:1.25" xml:space="preserve"><tspan x="200" y="80.000221">SLIDE</tspan></text>
   <text x="617.5" y="80.000221" text-align="center" style="line-height:1.25" xml:space="preserve"><tspan x="625" y="80.000221">SLIDE</tspan></text>
   <text transform="rotate(90)" x="192.5" y="-819.99976" text-align="center" style="line-height:1.25" xml:space="preserve"><tspan x="200" y="-819.99976">SLIDE</tspan></text>
   <text transform="rotate(90)" x="617.5" y="-819.99976" text-align="center" style="line-height:1.25" xml:space="preserve"><tspan x="625" y="-819.99976">SLIDE</tspan></text>
  </g>
  <g font-size="40px" letter-spacing="0px">
   <text transform="rotate(90)" x="625" y="-143.00009" text-align="center" style="line-height:1.25" xml:space="preserve"><tspan x="625" y="-143.00009" font-size="18.667px">START</tspan></text>
   <text transform="rotate(90)" x="725.5" y="-393.00009" text-align="center" style="line-height:1.25" xml:space="preserve"><tspan x="725" y="-393.00009" font-size="18.667px" letter-spacing="-1px">HOME</tspan></text>
   <text transform="scale(-1)" x="-275" y="-142.99983" text-align="center" style="line-height:1.25" xml:space="preserve"><tspan x="-275" y="-142.99983" font-size="18.667px">START</tspan></text>
   <text transform="scale(-1)" x="-174.5" y="-392.99985" text-align="center" style="line-height:1.25" xml:space="preserve"><tspan x="-175" y="-392.99985" font-size="18.667px" letter-spacing="-1px">HOME</tspan></text>
   <text transform="rotate(-90)" x="-275" y="757.00018" text-align="center" style="line-height:1.25" xml:space="preserve"><tspan x="-275" y="757.00018" font-size="18.667px">START</tspan></text>
   <text transform="rotate(-90)" x="-174.5" y="507.00015" text-align="center" style="line-height:1.25" xml:space="preserve"><tspan x="-175" y="507.00015" font-size="18.667px" letter-spacing="-1px">HOME</tspan></text>
  </g>
  <g font-size="16px" letter-spacing="7px">
   <text transform="rotate(-90)" x="-678.5" y="731" text-align="center" style="line-height:1.25" xml:space="preserve"><tspan x="-675" y="731">SAFETY ZONE</tspan></text>
   <text x="221.5" y="730.99982" text-align="center" style="line-height:1.25" xml:space="preserve"><tspan x="225" y="730.99982">SAFETY ZONE</tspan></text>
   <text transform="rotate(90)" x="221.5" y="-169.00018" text-align="center" style="line-height:1.25" xml:space="preserve"><tspan x="225" y="-169.00018">SAFETY ZONE</tspan></text>
   <text transform="scale(-1)" x="-678.5" y="-169" text-align="center" style="line-height:1.25" xml:space="preserve"><tspan x="-675" y="-169">SAFETY ZONE</tspan></text>
  </g>
 </g>
</svg>
